<?xml version="1.0" encoding="utf-8"?>
<!-- Generator: Adobe Illustrator 22.1.0, SVG Export Plug-In . SVG Version: 6.00 Build 0)  -->
<svg version="1.1" id="Layer_1" xmlns="http://www.w3.org/2000/svg" xmlns:xlink="http://www.w3.org/1999/xlink" x="0px" y="0px"
	 viewBox="0 0 504 216" style="enable-background:new 0 0 504 216;" xml:space="preserve">
<style type="text/css">
	.st0{fill:#F2D799;}
	.st1{font-family:'AbrilFatface-Regular';}
	.st2{font-size:50px;}
	.st3{fill:#D7885A;}
</style>
<g>
	<text transform="matrix(1 0 0 1 31.7192 130.0599)" class="st0 st1 st2">CARCASSONNE</text>
	<g id="jZUaKk_1_">
		<g>
			<path class="st3" d="M448.1,107.4c0,8.3-6.6,14.9-14.9,14.9c-8.1,0-14.8-6.7-14.8-14.8c0-8.3,6.6-14.9,14.9-14.9
				C441.4,92.5,448.1,99.2,448.1,107.4z"/>
			<path class="st3" d="M447,99.8c-1.6-2.9-3.9-5-6.9-6.5c1-1.2,1.7-2.6,1.9-4.2c0.1-0.4,0.1-0.8,0.1-1.2c0-3.3,3.1-6.6,6.1-6.6
				c0.6,0,1.3-0.2,1.9-0.3c2.4-0.6,4-2.1,4.8-4.4c0.1-0.4,0.3-0.7,0.5-1.3c0.2,0.4,0.3,0.7,0.3,1c1,3.9-0.1,7.2-3,9.9
				c-0.2,0.2-0.4,0.4-0.7,0.6c-1.7,1-1.9,2.5-1.6,4.3c0.2,1.1,0.4,2.3,0.3,3.4C450.7,96.9,449.1,98.5,447,99.8z"/>
			<path class="st3" d="M459.4,136.6c-2.7,0.3-4.9-0.3-6.9-1.7c-1.6-1.1-2.8-2.6-3.4-4.4c-0.6-1.7-1.8-2.4-3.5-2.5
				c-1.1-0.1-2.3-0.2-3.3-0.5c-2.5-0.7-3.8-2.5-4.6-5c3.2-1,5.8-2.7,7.9-5.3c1.4,2,3.4,2.9,5.5,3.6c2.2,0.7,4.9,3.7,4.2,7.3
				c-0.6,3.3,0.4,6.1,3.4,7.9C458.9,136.2,459,136.4,459.4,136.6z"/>
			<path class="st3" d="M417.9,103.9c-2-1.1-4-1.2-6.1-0.9c-3.1,0.5-6.3-1.5-7.3-4.5c-0.2-0.7-0.5-1.5-0.9-2.1
				c-1.1-2.2-3-3.4-5.5-3.7c-0.3,0-0.6-0.1-1.1-0.1c2.1-1.4,4.2-1.8,6.5-1.5c2.1,0.3,3.9,1.1,5.4,2.5c1.3,1.2,2.6,1.3,4.2,0.7
				c1.1-0.4,2.2-0.8,3.3-1.1c2.6-0.5,4.6,0.6,6.3,2.5C420.3,97.9,418.7,100.6,417.9,103.9z"/>
			<path class="st3" d="M472.3,105.4c-1.3,2-2.9,3.3-5,4s-4.2,0.8-6.3,0.1c-1.6-0.5-2.9-0.1-4,1.1c-0.7,0.8-1.4,1.5-2.2,2.2
				c-2.1,1.7-4.5,1.7-7,0.7c1.2-3.1,1.5-6.2,0.9-9.4c0.1-0.1,0.2-0.1,0.2-0.1c2,0.1,3.8-0.5,5.4-1.7c2.2-1.6,6.6-1.7,8.9,0.9
				c1.7,2,3.9,3.3,6.7,2.8C470.6,105.9,471.4,105.6,472.3,105.4z"/>
			<path class="st3" d="M435.8,91.9c-3.2-0.5-6.3-0.1-9.4,1.4c-0.4-2.4-1.9-4-3.5-5.6c-2.1-2.1-2.4-5.7-0.7-8.2
				c1.2-1.9,2.1-4,1.5-6.3c-0.3-1.1-0.9-2.1-1.3-3.2c0.1,0,0.3,0,0.4,0.1c3.8,1.6,5.7,4.5,6.1,8.5c0.1,0.6,0.1,1.2,0,1.8
				c-0.1,1.2,0.4,2,1.4,2.6c0.7,0.5,1.5,0.9,2.2,1.3c2.7,1.6,3.8,3.9,3.5,7C435.8,91.5,435.8,91.7,435.8,91.9z"/>
			<path class="st3" d="M424,120.4c1.5,0.7,2.9,1.5,4.4,2s3.1,0.7,4.7,1c-0.1,0.4-0.2,0.8-0.2,1.3c-0.2,1.6,0.1,3.1,0.7,4.5
				c1.1,2.5,0.2,6.8-2.9,8.4c-2.3,1.2-3.9,2.9-4.2,5.6c-0.1,0.9,0,1.8-0.1,2.8c-0.2-0.3-0.4-0.5-0.6-0.8c-2.5-3.3-2.9-7-1-10.6
				c1.1-2.1,0.8-3.7-0.5-5.4c-2.2-3-2.3-5.8-0.4-8.6C423.9,120.5,423.9,120.4,424,120.4z"/>
			<path class="st3" d="M420.9,117.2c-2.1,0.9-3.4,2.4-4.4,4.2c-1.3,2.4-5.1,4.3-8.2,3c-3.4-1.4-6.4-1-9,1.9c0,0.1-0.1,0.1-0.3,0.2
				c0.3-2.2,1-4,2.4-5.5c1.6-1.8,3.6-2.8,6-3.2c1.6-0.2,2.4-1.1,2.9-2.5c0.3-1,0.6-2.1,1.1-3.1c1.2-2.5,3.3-3.6,6.1-3.8
				C417.8,111.6,418.8,114.5,420.9,117.2z"/>
			<path class="st3" d="M447.4,100.6c1-0.9,1.9-1.8,2.7-2.6c0.1-0.1,0.4-0.2,0.5-0.2c2.8,0.3,4.8-0.9,6.1-3.4l0.1-0.1
				c0.5,1,0.5,2.7-0.1,4.1c-1.2,2.7-3.3,4.3-6.2,4.9c-0.3,0.1-0.7,0-1,0c-0.8,0-1.4-0.2-1.6-1.2C447.9,101.5,447.6,101,447.4,100.6z
				"/>
			<path class="st3" d="M405.9,109.2c0.3-0.8,0.6-1.6,0.9-2.3c1.7-3,6.3-4.5,9.4-3c1.3,0.6,1.4,0.8,1.3,2.2c0,0.5-0.1,1.1-0.1,1.4
				c-1.3,0.4-2.5,0.8-3.7,1.2c-0.1,0-0.4,0-0.5,0c-2.5-1.5-4.8-1.2-7,0.5C406.3,109.2,406.2,109.1,405.9,109.2z"/>
			<path class="st3" d="M447.4,114.3c1.3,0.2,2.6,0.3,3.8,0.5c0.2,0,0.4,0.1,0.4,0.2c1.6,2.4,3.8,3.2,6.6,2.6h0.1
				c0,0.1-0.1,0.2-0.1,0.3c-2.6,3.6-9.3,3.3-11.7-0.5c-0.4-0.6-0.5-1.1,0-1.7C446.9,115.3,447.2,114.7,447.4,114.3z"/>
			<path class="st3" d="M436.7,122.8c0.7,1.2,1.3,2.2,1.9,3.3c0.1,0.1,0.1,0.4,0.1,0.5c-0.9,2.8-0.1,5,2.1,7c-0.4,0-0.9,0-1.3-0.1
				c-4-0.5-7.1-5.4-5.9-9.2c0.2-0.8,0.6-1.3,1.5-1.3C435.7,123.1,436.2,122.9,436.7,122.8z"/>
			<path class="st3" d="M414.8,87.5c1.5-0.9,3-1.1,4.6-0.8c2.9,0.6,5.7,3.2,6.1,5.8c0.1,0.8,0.1,1.4-0.8,1.8c-0.6,0.2-1,0.7-1.4,1
				c-1.1-0.7-2.2-1.3-3.2-2c-0.1-0.1-0.3-0.3-0.3-0.4c-0.4-2.8-2.1-4.5-4.8-5.1C415,87.6,414.9,87.5,414.8,87.5z"/>
			<path class="st3" d="M417.7,129.7c-1.1-1.2-1.7-2.6-1.7-4.1c0-2.9,1.1-5.2,3.4-6.9c0.4-0.3,0.8-0.4,1.2-0.6
				c0.5-0.3,1-0.2,1.4,0.3s1,1,1.4,1.3c-0.4,1.2-0.8,2.4-1.3,3.6c-0.1,0.1-0.2,0.3-0.4,0.4c-2.7,1-3.9,3-3.9,5.8
				C417.8,129.6,417.8,129.6,417.7,129.7z"/>
			<path class="st3" d="M436.7,92c-0.2-1.3-0.3-2.5-0.5-3.7c0-0.2,0-0.4,0.1-0.5c2-2.2,2.2-4.5,0.8-7.2c0.3,0.1,0.5,0.1,0.7,0.2
				c0.6,0.4,1.3,0.8,1.8,1.3c2.4,2.3,2.7,7,0.7,9.6c-0.8,1.1-1,1.1-2.2,0.7C437.6,92.3,437.1,92.2,436.7,92z"/>
		</g>
	</g>
</g>
</svg>
